#N canvas 771 231 815 536 12;
#X msg 310 248 440;
#X obj 310 276 osc~;
#X obj 310 304 hip~ 5;
#X obj 310 332 output~;
#X msg 367 248 880;
#X obj 367 276 osc~;
#X obj 367 304 hip~ 5;
#X connect 0 0 1 0;
#X connect 1 0 2 0;
#X connect 2 0 3 0;
#X connect 4 0 5 0;
#X connect 5 0 6 0;
#X connect 6 0 3 1;
